<svg width="204" height="116" viewBox="0 0 204 116" fill="none" xmlns="http://www.w3.org/2000/svg">
<path d="M150 114H116.4L113.8 51.2C113.4 38.8 112.933 29.4 112.4 23H111.8C110.2 28.0667 108.333 35.9333 106.2 46.6L105.2 51.6L91.4 114H57.8L46.2 57.8L44.2 47.8C41.4 35.4 39.4667 27.1333 38.4 23H37.8C37.2667 29.6667 36.8 40.5333 36.4 55.6C36.2667 56.5333 36.2 58 36.2 60L34.4 114H0.600001L5.4 -1.04904e-05H62.6L72.4 49.2L74.8 62.4C75.8667 58.2667 76.8667 53.6667 77.8 48.6L87 -1.04904e-05H145.4L150 114ZM184.448 115.6C178.982 115.6 174.448 113.8 170.848 110.2C167.382 106.6 165.648 101.733 165.648 95.6C165.648 90.2667 167.448 85.8 171.048 82.2C174.782 78.4667 179.448 76.6 185.048 76.6C190.382 76.6 194.848 78.4667 198.448 82.2C202.048 85.8 203.848 90.2667 203.848 95.6C203.848 101.733 202.048 106.6 198.448 110.2C194.982 113.8 190.315 115.6 184.448 115.6Z" fill="#FD8F5F"/>
</svg>
