<svg width="200" height="60" viewBox="0 0 200 60" fill="none" xmlns="http://www.w3.org/2000/svg">
<rect opacity="0.15" width="200" height="60" rx="13" fill="#D9D9D9"/>
<path d="M19.8335 20.5455H24.3846L29.1914 32.2727H29.396L34.2028 20.5455H38.7539V38H35.1744V26.6392H35.0295L30.5124 37.9148H28.0749L23.5579 26.5966H23.413V38H19.8335V20.5455ZM47.6921 38.2557C46.3455 38.2557 45.1864 37.983 44.2148 37.4375C43.2489 36.8864 42.5046 36.108 41.9819 35.1023C41.4592 34.0909 41.1978 32.8949 41.1978 31.5142C41.1978 30.1676 41.4592 28.9858 41.9819 27.9688C42.5046 26.9517 43.2404 26.1591 44.1893 25.5909C45.1438 25.0227 46.2631 24.7386 47.5472 24.7386C48.4109 24.7386 49.2148 24.8778 49.9592 25.1562C50.7092 25.429 51.3626 25.8409 51.9194 26.392C52.4819 26.9432 52.9194 27.6364 53.2319 28.4716C53.5444 29.3011 53.7006 30.2727 53.7006 31.3864V32.3835H42.6467V30.1335H50.283C50.283 29.6108 50.1694 29.1477 49.9421 28.7443C49.7148 28.3409 49.3995 28.0256 48.9961 27.7983C48.5984 27.5653 48.1353 27.4489 47.6069 27.4489C47.0558 27.4489 46.5671 27.5767 46.141 27.8324C45.7205 28.0824 45.391 28.4205 45.1523 28.8466C44.9137 29.267 44.7915 29.7358 44.7859 30.2528V32.392C44.7859 33.0398 44.9052 33.5994 45.1438 34.071C45.3881 34.5426 45.7319 34.9062 46.1751 35.1619C46.6183 35.4176 47.1438 35.5455 47.7518 35.5455C48.1552 35.5455 48.5245 35.4886 48.8597 35.375C49.195 35.2614 49.4819 35.0909 49.7205 34.8636C49.9592 34.6364 50.141 34.358 50.266 34.0284L53.6239 34.25C53.4535 35.0568 53.104 35.7614 52.5756 36.3636C52.0529 36.9602 51.3768 37.4261 50.5472 37.7614C49.7234 38.0909 48.7717 38.2557 47.6921 38.2557ZM59.7006 30.4318V38H56.07V20.5455H59.5984V27.2188H59.7518C60.0472 26.446 60.5245 25.8409 61.1836 25.4034C61.8427 24.9602 62.6694 24.7386 63.6637 24.7386C64.5728 24.7386 65.3654 24.9375 66.0415 25.3352C66.7234 25.7273 67.2518 26.2926 67.6268 27.0312C68.0075 27.7642 68.195 28.642 68.1893 29.6648V38H64.5586V30.3125C64.5643 29.5057 64.3597 28.8778 63.945 28.429C63.5359 27.9801 62.962 27.7557 62.2234 27.7557C61.729 27.7557 61.2915 27.8608 60.9109 28.071C60.5359 28.2812 60.2404 28.5881 60.0245 28.9915C59.8143 29.3892 59.7063 29.8693 59.7006 30.4318ZM77.0124 38.2557C75.6658 38.2557 74.5067 37.983 73.5352 37.4375C72.5692 36.8864 71.8249 36.108 71.3022 35.1023C70.7795 34.0909 70.5181 32.8949 70.5181 31.5142C70.5181 30.1676 70.7795 28.9858 71.3022 27.9688C71.8249 26.9517 72.5607 26.1591 73.5096 25.5909C74.4641 25.0227 75.5835 24.7386 76.8675 24.7386C77.7312 24.7386 78.5352 24.8778 79.2795 25.1562C80.0295 25.429 80.6829 25.8409 81.2397 26.392C81.8022 26.9432 82.2397 27.6364 82.5522 28.4716C82.8647 29.3011 83.021 30.2727 83.021 31.3864V32.3835H71.967V30.1335H79.6033C79.6033 29.6108 79.4897 29.1477 79.2624 28.7443C79.0352 28.3409 78.7198 28.0256 78.3164 27.7983C77.9187 27.5653 77.4556 27.4489 76.9272 27.4489C76.3761 27.4489 75.8874 27.5767 75.4613 27.8324C75.0408 28.0824 74.7113 28.4205 74.4727 28.8466C74.234 29.267 74.1119 29.7358 74.1062 30.2528V32.392C74.1062 33.0398 74.2255 33.5994 74.4641 34.071C74.7085 34.5426 75.0522 34.9062 75.4954 35.1619C75.9386 35.4176 76.4641 35.5455 77.0721 35.5455C77.4755 35.5455 77.8448 35.4886 78.18 35.375C78.5153 35.2614 78.8022 35.0909 79.0408 34.8636C79.2795 34.6364 79.4613 34.358 79.5863 34.0284L82.9442 34.25C82.7738 35.0568 82.4244 35.7614 81.896 36.3636C81.3732 36.9602 80.6971 37.4261 79.8675 37.7614C79.0437 38.0909 78.092 38.2557 77.0124 38.2557ZM90.2141 38.2131C89.2198 38.2131 88.3192 37.9574 87.5124 37.446C86.7113 36.929 86.0749 36.1705 85.6033 35.1705C85.1374 34.1648 84.9045 32.9318 84.9045 31.4716C84.9045 29.9716 85.146 28.7244 85.6289 27.7301C86.1119 26.7301 86.7539 25.983 87.555 25.4886C88.3619 24.9886 89.2454 24.7386 90.2056 24.7386C90.9386 24.7386 91.5494 24.8636 92.038 25.1136C92.5323 25.358 92.93 25.6648 93.2312 26.0341C93.538 26.3977 93.771 26.7557 93.93 27.108H94.0408V20.5455H97.663V38H94.0835V35.9034H93.93C93.7596 36.267 93.5181 36.6278 93.2056 36.9858C92.8988 37.3381 92.4982 37.6307 92.0039 37.8636C91.5153 38.0966 90.9187 38.2131 90.2141 38.2131ZM91.3647 35.3239C91.9499 35.3239 92.4442 35.1648 92.8477 34.8466C93.2567 34.5227 93.5692 34.071 93.7852 33.4915C94.0067 32.9119 94.1175 32.233 94.1175 31.4545C94.1175 30.6761 94.0096 30 93.7937 29.4261C93.5778 28.8523 93.2653 28.4091 92.8562 28.0966C92.4471 27.7841 91.9499 27.6278 91.3647 27.6278C90.7681 27.6278 90.2653 27.7898 89.8562 28.1136C89.4471 28.4375 89.1374 28.8864 88.9272 29.4602C88.717 30.0341 88.6119 30.6989 88.6119 31.4545C88.6119 32.2159 88.717 32.8892 88.9272 33.4744C89.1431 34.054 89.4528 34.5085 89.8562 34.8381C90.2653 35.1619 90.7681 35.3239 91.3647 35.3239ZM100.648 38V24.9091H104.279V38H100.648ZM102.472 23.2216C101.932 23.2216 101.469 23.0426 101.083 22.6847C100.702 22.321 100.512 21.8864 100.512 21.3807C100.512 20.8807 100.702 20.4517 101.083 20.0938C101.469 19.7301 101.932 19.5483 102.472 19.5483C103.012 19.5483 103.472 19.7301 103.853 20.0938C104.239 20.4517 104.432 20.8807 104.432 21.3807C104.432 21.8864 104.239 22.321 103.853 22.6847C103.472 23.0426 103.012 23.2216 102.472 23.2216ZM113.407 38V20.5455H115.52V28.3182H124.827V20.5455H126.941V38H124.827V30.1932H115.52V38H113.407ZM134.752 38.3068C133.922 38.3068 133.169 38.1506 132.493 37.8381C131.817 37.5199 131.28 37.0625 130.882 36.4659C130.485 35.8636 130.286 35.1364 130.286 34.2841C130.286 33.5341 130.434 32.9261 130.729 32.4602C131.025 31.9886 131.419 31.6193 131.914 31.3523C132.408 31.0852 132.953 30.8864 133.55 30.7557C134.152 30.6193 134.757 30.5114 135.365 30.4318C136.161 30.3295 136.806 30.2528 137.3 30.2017C137.8 30.1449 138.164 30.0511 138.391 29.9205C138.624 29.7898 138.74 29.5625 138.74 29.2386V29.1705C138.74 28.3295 138.51 27.6761 138.05 27.2102C137.596 26.7443 136.905 26.5114 135.979 26.5114C135.019 26.5114 134.266 26.7216 133.721 27.142C133.175 27.5625 132.792 28.0114 132.57 28.4886L130.661 27.8068C131.002 27.0114 131.456 26.392 132.025 25.9489C132.598 25.5 133.223 25.1875 133.9 25.0114C134.581 24.8295 135.252 24.7386 135.911 24.7386C136.331 24.7386 136.814 24.7898 137.36 24.892C137.911 24.9886 138.442 25.1903 138.953 25.4972C139.471 25.804 139.9 26.267 140.24 26.8864C140.581 27.5057 140.752 28.3352 140.752 29.375V38H138.74V36.2273H138.638C138.502 36.5114 138.275 36.8153 137.956 37.1392C137.638 37.4631 137.215 37.7386 136.686 37.9659C136.158 38.1932 135.513 38.3068 134.752 38.3068ZM135.059 36.5C135.854 36.5 136.525 36.3438 137.07 36.0312C137.621 35.7188 138.036 35.3153 138.314 34.821C138.598 34.3267 138.74 33.8068 138.74 33.2614V31.4205C138.655 31.5227 138.468 31.6165 138.178 31.7017C137.894 31.7812 137.564 31.8523 137.189 31.9148C136.82 31.9716 136.459 32.0227 136.107 32.0682C135.76 32.108 135.479 32.142 135.263 32.1705C134.74 32.2386 134.252 32.3494 133.797 32.5028C133.348 32.6506 132.985 32.875 132.706 33.1761C132.434 33.4716 132.297 33.875 132.297 34.3864C132.297 35.0852 132.556 35.6136 133.073 35.9716C133.596 36.3239 134.257 36.5 135.059 36.5ZM153.696 27.8409L151.889 28.3523C151.775 28.0511 151.608 27.7585 151.386 27.4744C151.17 27.1847 150.875 26.946 150.5 26.7585C150.125 26.571 149.645 26.4773 149.059 26.4773C148.258 26.4773 147.591 26.6619 147.056 27.0312C146.528 27.3949 146.264 27.858 146.264 28.4205C146.264 28.9205 146.446 29.3153 146.809 29.6051C147.173 29.8949 147.741 30.1364 148.514 30.3295L150.457 30.8068C151.627 31.0909 152.5 31.5256 153.074 32.1108C153.647 32.6903 153.934 33.4375 153.934 34.3523C153.934 35.1023 153.718 35.7727 153.287 36.3636C152.86 36.9545 152.264 37.4205 151.497 37.7614C150.73 38.1023 149.838 38.2727 148.821 38.2727C147.485 38.2727 146.38 37.983 145.505 37.4034C144.63 36.8239 144.076 35.9773 143.843 34.8636L145.752 34.3864C145.934 35.0909 146.278 35.6193 146.784 35.9716C147.295 36.3239 147.963 36.5 148.787 36.5C149.724 36.5 150.468 36.3011 151.02 35.9034C151.576 35.5 151.855 35.017 151.855 34.4545C151.855 34 151.696 33.6193 151.377 33.3125C151.059 33 150.571 32.767 149.912 32.6136L147.73 32.1023C146.531 31.8182 145.65 31.3778 145.088 30.7812C144.531 30.179 144.252 29.4261 144.252 28.5227C144.252 27.7841 144.46 27.1307 144.875 26.5625C145.295 25.9943 145.866 25.5483 146.588 25.2244C147.315 24.9006 148.139 24.7386 149.059 24.7386C150.355 24.7386 151.372 25.0227 152.11 25.5909C152.855 26.1591 153.383 26.9091 153.696 27.8409ZM160.814 38.3068C159.985 38.3068 159.232 38.1506 158.556 37.8381C157.88 37.5199 157.343 37.0625 156.945 36.4659C156.547 35.8636 156.348 35.1364 156.348 34.2841C156.348 33.5341 156.496 32.9261 156.792 32.4602C157.087 31.9886 157.482 31.6193 157.976 31.3523C158.471 31.0852 159.016 30.8864 159.613 30.7557C160.215 30.6193 160.82 30.5114 161.428 30.4318C162.223 30.3295 162.868 30.2528 163.363 30.2017C163.863 30.1449 164.226 30.0511 164.453 29.9205C164.686 29.7898 164.803 29.5625 164.803 29.2386V29.1705C164.803 28.3295 164.573 27.6761 164.113 27.2102C163.658 26.7443 162.968 26.5114 162.042 26.5114C161.081 26.5114 160.328 26.7216 159.783 27.142C159.238 27.5625 158.854 28.0114 158.632 28.4886L156.723 27.8068C157.064 27.0114 157.519 26.392 158.087 25.9489C158.661 25.5 159.286 25.1875 159.962 25.0114C160.644 24.8295 161.314 24.7386 161.973 24.7386C162.394 24.7386 162.877 24.7898 163.422 24.892C163.973 24.9886 164.505 25.1903 165.016 25.4972C165.533 25.804 165.962 26.267 166.303 26.8864C166.644 27.5057 166.814 28.3352 166.814 29.375V38H164.803V36.2273H164.701C164.564 36.5114 164.337 36.8153 164.019 37.1392C163.701 37.4631 163.277 37.7386 162.749 37.9659C162.221 38.1932 161.576 38.3068 160.814 38.3068ZM161.121 36.5C161.917 36.5 162.587 36.3438 163.132 36.0312C163.684 35.7188 164.098 35.3153 164.377 34.821C164.661 34.3267 164.803 33.8068 164.803 33.2614V31.4205C164.718 31.5227 164.53 31.6165 164.24 31.7017C163.956 31.7812 163.627 31.8523 163.252 31.9148C162.882 31.9716 162.522 32.0227 162.169 32.0682C161.823 32.108 161.542 32.142 161.326 32.1705C160.803 32.2386 160.314 32.3494 159.86 32.5028C159.411 32.6506 159.047 32.875 158.769 33.1761C158.496 33.4716 158.36 33.875 158.36 34.3864C158.36 35.0852 158.618 35.6136 159.135 35.9716C159.658 36.3239 160.32 36.5 161.121 36.5ZM172.497 30.125V38H170.485V24.9091H172.429V26.9545H172.599C172.906 26.2898 173.372 25.7557 173.997 25.3523C174.622 24.9432 175.429 24.7386 176.417 24.7386C177.304 24.7386 178.079 24.9205 178.744 25.2841C179.409 25.642 179.926 26.1875 180.295 26.9205C180.664 27.6477 180.849 28.5682 180.849 29.6818V38H178.838V29.8182C178.838 28.7898 178.571 27.9886 178.037 27.4148C177.502 26.8352 176.77 26.5455 175.838 26.5455C175.196 26.5455 174.622 26.6847 174.116 26.9631C173.616 27.2415 173.221 27.6477 172.931 28.1818C172.642 28.7159 172.497 29.3636 172.497 30.125Z" fill="white"/>
</svg>
